<svg width="19" height="19" viewBox="0 0 19 19" fill="none" xmlns="http://www.w3.org/2000/svg">
<g id="Iconly/Light-Outline/Message">
<g id="Message">
<path id="Fill 1" fill-rule="evenodd" clip-rule="evenodd" d="M9.32331 10.6596C8.79368 10.6596 8.26564 10.4846 7.82389 10.1347L4.27327 7.27202C4.01756 7.06618 3.97798 6.69173 4.18302 6.43681C4.38964 6.18268 4.76331 6.14231 5.01823 6.34735L8.56568 9.20685C9.01139 9.55993 9.63918 9.55993 10.0881 9.20368L13.5999 6.34893C13.8548 6.14072 14.2285 6.18031 14.4359 6.43523C14.6425 6.68935 14.6037 7.06302 14.3496 7.27043L10.8314 10.1299C10.3865 10.483 9.85452 10.6596 9.32331 10.6596Z" fill="#324A59"/>
<g id="Group 5">
<mask id="mask0_2_1589" style="mask-type:luminance" maskUnits="userSpaceOnUse" x="0" y="1" width="18" height="17">
<path id="Clip 4" fill-rule="evenodd" clip-rule="evenodd" d="M0.791626 1.58331H17.8124V17.0208H0.791626V1.58331Z" fill="white"/>
</mask>
<g mask="url(#mask0_2_1589)">
<path id="Fill 3" fill-rule="evenodd" clip-rule="evenodd" d="M5.41405 15.8333H13.1882C13.1898 15.8317 13.1961 15.8333 13.2009 15.8333C14.1042 15.8333 14.9053 15.5103 15.5197 14.8968C16.233 14.1866 16.6248 13.1662 16.6248 12.0238V6.58665C16.6248 4.37552 15.1793 2.77081 13.1882 2.77081H5.41563C3.42459 2.77081 1.979 4.37552 1.979 6.58665V12.0238C1.979 13.1662 2.37167 14.1866 3.08417 14.8968C3.6985 15.5103 4.50046 15.8333 5.40296 15.8333H5.41405ZM5.40059 17.0208C4.17905 17.0208 3.08813 16.5775 2.2458 15.7383C1.30767 14.8026 0.791504 13.4836 0.791504 12.0238V6.58665C0.791504 3.73427 2.77938 1.58331 5.41563 1.58331H13.1882C15.8245 1.58331 17.8123 3.73427 17.8123 6.58665V12.0238C17.8123 13.4836 17.2962 14.8026 16.358 15.7383C15.5165 16.5767 14.4248 17.0208 13.2009 17.0208H13.1882H5.41563H5.40059Z" fill="#324A59"/>
</g>
</g>
</g>
</g>
</svg>
