<?xml version="1.0" encoding="iso-8859-1"?>
<!-- Uploaded to: SVG Repo, www.svgrepo.com, Generator: SVG Repo Mixer Tools -->
<svg fill="#000000" height="800px" width="800px" version="1.1" id="Layer_1" xmlns="http://www.w3.org/2000/svg" xmlns:xlink="http://www.w3.org/1999/xlink" 
	 viewBox="0 0 300 300" xml:space="preserve">
<g>
	<g>
		<g>
			<path d="M224.977,137.951c0.011-0.149,0.023-0.299,0.023-0.451V55.694C225,22.9,199.306,0,162.5,0h-25C100.7,0,75,22.9,75,55.694
				V137.5c0,0.152,0.012,0.301,0.023,0.451C53.843,140.985,37.5,159.246,37.5,181.25v75c0,24.119,19.625,43.75,43.75,43.75h137.5
				c24.119,0,43.75-19.631,43.75-43.75v-75C262.5,159.246,246.157,140.985,224.977,137.951z M87.5,55.694
				c0-29.675,25.919-43.194,50-43.194h25c24.088,0,50,13.519,50,43.194V137.5h-125V55.694z M250,256.25
				c0,17.231-14.019,31.25-31.25,31.25H81.25C64.019,287.5,50,273.481,50,256.25v-75C50,164.019,64.019,150,81.25,150h137.5
				c17.231,0,31.25,14.019,31.25,31.25V256.25z"/>
			<path d="M150,168.75c-17.231,0-31.25,14.019-31.25,31.25c0,9.769,4.713,19.006,12.5,24.869V250c0,10.338,8.412,18.75,18.75,18.75
				s18.75-8.412,18.75-18.75v-25.131c7.787-5.869,12.5-15.1,12.5-24.869C181.25,182.769,167.231,168.75,150,168.75z
				 M159.356,216.131c-1.925,1.112-3.106,3.181-3.106,5.4V250c0,3.45-2.806,6.25-6.25,6.25s-6.25-2.8-6.25-6.25v-28.469
				c0-2.219-1.181-4.275-3.106-5.4c-5.881-3.425-9.394-9.456-9.394-16.131c0-10.338,8.412-18.75,18.75-18.75
				s18.75,8.412,18.75,18.75C168.75,206.675,165.237,212.706,159.356,216.131z"/>
		</g>
	</g>
</g>
</svg>