<svg width="24" height="24" viewBox="0 0 24 24" fill="none" xmlns="http://www.w3.org/2000/svg">
<g id="Iconly/Light-Outline/Delete">
<g id="Delete">
<path id="Fill 1" fill-rule="evenodd" clip-rule="evenodd" d="M12.2466 22C10.8916 22 9.5706 21.985 8.2636 21.958C6.5916 21.925 5.4346 20.841 5.2456 19.129C4.9306 16.289 4.3916 9.595 4.3866 9.528C4.3526 9.115 4.6606 8.753 5.0736 8.72C5.4806 8.709 5.8486 8.995 5.8816 9.407C5.8866 9.475 6.4246 16.146 6.7366 18.964C6.8436 19.937 7.3686 20.439 8.2946 20.458C10.7946 20.511 13.3456 20.514 16.0956 20.464C17.0796 20.445 17.6116 19.953 17.7216 18.957C18.0316 16.163 18.5716 9.475 18.5776 9.407C18.6106 8.995 18.9756 8.707 19.3846 8.72C19.7976 8.754 20.1056 9.115 20.0726 9.528C20.0666 9.596 19.5246 16.307 19.2126 19.122C19.0186 20.869 17.8646 21.932 16.1226 21.964C14.7896 21.987 13.5036 22 12.2466 22Z" fill="#FF3030"/>
<path id="Fill 3" fill-rule="evenodd" clip-rule="evenodd" d="M20.708 6.9893H3.75C3.336 6.9893 3 6.6533 3 6.2393C3 5.8253 3.336 5.4893 3.75 5.4893H20.708C21.122 5.4893 21.458 5.8253 21.458 6.2393C21.458 6.6533 21.122 6.9893 20.708 6.9893Z" fill="#FF3030"/>
<path id="Fill 5" fill-rule="evenodd" clip-rule="evenodd" d="M17.4405 6.9893C16.3025 6.9893 15.3145 6.1783 15.0905 5.0623L14.8475 3.8463C14.7965 3.6613 14.5855 3.5003 14.3455 3.5003H10.1125C9.87246 3.5003 9.66146 3.6613 9.60046 3.8923L9.36746 5.0623C9.14446 6.1783 8.15546 6.9893 7.01746 6.9893C6.60346 6.9893 6.26746 6.6533 6.26746 6.2393C6.26746 5.8253 6.60346 5.4893 7.01746 5.4893C7.44346 5.4893 7.81346 5.1853 7.89746 4.7673L8.14046 3.5513C8.38746 2.6193 9.19446 2.0003 10.1125 2.0003H14.3455C15.2635 2.0003 16.0705 2.6193 16.3075 3.5063L16.5615 4.7673C16.6445 5.1853 17.0145 5.4893 17.4405 5.4893C17.8545 5.4893 18.1905 5.8253 18.1905 6.2393C18.1905 6.6533 17.8545 6.9893 17.4405 6.9893Z" fill="#FF3030"/>
</g>
</g>
</svg>
