<svg width="14" height="14" viewBox="0 0 14 14" fill="none" xmlns="http://www.w3.org/2000/svg">
<g id="Iconly/Light-Outline/Location">
<g id="Location">
<path id="Fill 1" fill-rule="evenodd" clip-rule="evenodd" d="M7.14611 4.95825C6.58319 4.95825 6.12527 5.41617 6.12527 5.97967C6.12527 6.54259 6.58319 6.99992 7.14611 6.99992C7.70902 6.99992 8.16694 6.54259 8.16694 5.97967C8.16694 5.41617 7.70902 4.95825 7.14611 4.95825ZM7.14611 7.87492C6.10077 7.87492 5.25027 7.025 5.25027 5.97967C5.25027 4.93375 6.10077 4.08325 7.14611 4.08325C8.19144 4.08325 9.04194 4.93375 9.04194 5.97967C9.04194 7.025 8.19144 7.87492 7.14611 7.87492Z" fill="#324A59" fill-opacity="0.8"/>
<g id="Group 5">
<mask id="mask0_2_1335" style="mask-type:luminance" maskUnits="userSpaceOnUse" x="2" y="1" width="10" height="12">
<path id="Clip 4" fill-rule="evenodd" clip-rule="evenodd" d="M2.33331 1.16663H11.958V12.5416H2.33331V1.16663Z" fill="white"/>
</mask>
<g mask="url(#mask0_2_1335)">
<path id="Fill 3" fill-rule="evenodd" clip-rule="evenodd" d="M7.14551 2.04163C4.97434 2.04163 3.20801 3.82488 3.20801 6.01588C3.20801 8.80363 6.48867 11.5196 7.14551 11.6643C7.80234 11.519 11.083 8.80304 11.083 6.01588C11.083 3.82488 9.31667 2.04163 7.14551 2.04163ZM7.14551 12.5416C6.09901 12.5416 2.33301 9.30296 2.33301 6.01588C2.33301 3.34188 4.49192 1.16663 7.14551 1.16663C9.79909 1.16663 11.958 3.34188 11.958 6.01588C11.958 9.30296 8.19201 12.5416 7.14551 12.5416Z" fill="#324A59" fill-opacity="0.8"/>
</g>
</g>
</g>
</g>
</svg>
